<svg viewBox="0 0 700 380" xmlns="http://www.w3.org/2000/svg" font-family="'Inter', sans-serif">
  <defs>
    <clipPath id="chartClip">
      <rect x="60" y="40" width="600" height="270"/>
    </clipPath>
  </defs>

  <!-- Background -->
  <rect width="700" height="380" fill="#111111" rx="8"/>

  <!-- Title -->
  <text x="60" y="28" fill="#e8e8e8" font-size="14" font-weight="600">Latency percentiles</text>

  <!-- Chart area border -->
  <rect x="60" y="40" width="600" height="270" fill="none" stroke="#222222" stroke-width="1"/>

  <!-- Horizontal grid lines and Y-axis labels -->
  <!-- y scale: y=310 is 0s, y=40 is 60s (270px for 60s, 4.5px/s) -->
  <line x1="60" y1="310" x2="660" y2="310" stroke="#222222" stroke-width="1"/>
  <text x="52" y="314" fill="#999999" font-size="11" text-anchor="end">0 s</text>

  <line x1="60" y1="220" x2="660" y2="220" stroke="#222222" stroke-width="1" stroke-dasharray="4,4"/>
  <text x="52" y="224" fill="#999999" font-size="11" text-anchor="end">20 s</text>

  <line x1="60" y1="130" x2="660" y2="130" stroke="#222222" stroke-width="1" stroke-dasharray="4,4"/>
  <text x="52" y="134" fill="#999999" font-size="11" text-anchor="end">40 s</text>

  <line x1="60" y1="40" x2="660" y2="40" stroke="#222222" stroke-width="1" stroke-dasharray="4,4"/>
  <text x="52" y="44" fill="#999999" font-size="11" text-anchor="end">1 min</text>

  <!-- Vertical grid lines and X-axis labels -->
  <!-- x scale: x=60 is 09:45, x=660 is 11:45 (600px for 120min, 5px/min) -->
  <line x1="60" y1="40" x2="60" y2="310" stroke="#222222" stroke-width="1"/>
  <text x="60" y="328" fill="#999999" font-size="10" text-anchor="middle">09:45</text>

  <line x1="135" y1="40" x2="135" y2="310" stroke="#222222" stroke-width="1" stroke-dasharray="4,4"/>
  <text x="135" y="328" fill="#999999" font-size="10" text-anchor="middle">10:00</text>

  <line x1="210" y1="40" x2="210" y2="310" stroke="#222222" stroke-width="1" stroke-dasharray="4,4"/>
  <text x="210" y="328" fill="#999999" font-size="10" text-anchor="middle">10:15</text>

  <line x1="285" y1="40" x2="285" y2="310" stroke="#222222" stroke-width="1" stroke-dasharray="4,4"/>
  <text x="285" y="328" fill="#999999" font-size="10" text-anchor="middle">10:30</text>

  <line x1="360" y1="40" x2="360" y2="310" stroke="#222222" stroke-width="1" stroke-dasharray="4,4"/>
  <text x="360" y="328" fill="#999999" font-size="10" text-anchor="middle">10:45</text>

  <line x1="435" y1="40" x2="435" y2="310" stroke="#222222" stroke-width="1" stroke-dasharray="4,4"/>
  <text x="435" y="328" fill="#999999" font-size="10" text-anchor="middle">11:00</text>

  <line x1="510" y1="40" x2="510" y2="310" stroke="#222222" stroke-width="1" stroke-dasharray="4,4"/>
  <text x="510" y="328" fill="#999999" font-size="10" text-anchor="middle">11:15</text>

  <line x1="585" y1="40" x2="585" y2="310" stroke="#222222" stroke-width="1" stroke-dasharray="4,4"/>
  <text x="585" y="328" fill="#999999" font-size="10" text-anchor="middle">11:30</text>

  <line x1="660" y1="40" x2="660" y2="310" stroke="#222222" stroke-width="1"/>
  <text x="660" y="328" fill="#999999" font-size="10" text-anchor="middle">11:45</text>

  <!-- Data lines -->
  <!-- val_to_y(s) = 310 - s*4.5 -->
  <!-- time_to_x(min) = 60 + min*5, where min=0 is 09:45 -->

  <g clip-path="url(#chartClip)">

    <!-- average (green #22c55e) - Lowest line -->
    <polyline fill="none" stroke="#22c55e" stroke-width="2" stroke-linejoin="round" stroke-linecap="round" points="
      60,307 65,306 70,307 75,306 80,307 85,306 90,307 95,306 100,305 105,306
      110,304 115,303 120,302 125,298 130,290
      135,200 138,45 140,43 143,43 146,43 150,43 155,43 160,44
      165,47 170,54 175,63 180,72 185,81 190,90
      195,99 200,108 205,112 210,117 215,121 220,126
      225,130 230,135 235,139 240,144 245,148 250,153
      255,157 260,162 265,166 270,171 275,175 280,180
      285,184 290,189 295,193 300,198 305,202 310,207
      315,211 320,216 325,218 330,222 335,225 340,229
      345,232 350,234 355,238 360,241 365,243 370,247
      375,249 380,252 385,254 390,256 395,258 400,260
      405,263 410,265 415,267 420,268 425,270 430,271
      435,272 440,274 445,275 450,276 455,277 460,278
      465,279 470,280 475,281 480,282 485,283 490,283
      495,284 500,284 505,285 510,285 515,286 520,286
      525,287 530,287 535,287 540,288 545,288 550,288
      555,288 560,289 565,289 570,289 575,289 580,289
      583,296 585,301 588,303 590,305 595,306 600,306
      605,307 610,307 615,307 620,307 625,308 630,308
      635,307 640,308 645,307 650,307 655,308 660,307
    "/>

    <!-- 75th percentile (yellow #eab308) -->
    <polyline fill="none" stroke="#eab308" stroke-width="2" stroke-linejoin="round" stroke-linecap="round" points="
      60,305 65,304 70,305 75,304 80,305 85,304 90,305 95,304 100,303 105,304
      110,302 115,300 120,298 125,292 130,278
      135,170 138,44 140,42 143,42 146,42 150,42 155,42 160,43
      165,44 170,46 175,50 180,58 185,67 190,76
      195,162 200,171 205,175 210,180 215,175 220,180
      225,184 230,189 235,184 240,189 245,193 250,198
      255,195 260,200 265,198 270,203 275,207 280,211
      285,208 290,211 295,215 300,218 305,220 310,222
      315,218 320,222 325,225 330,228 335,230 340,232
      345,228 350,232 355,235 360,238 365,240 370,242
      375,239 380,243 385,245 390,248 395,250 400,252
      405,249 410,252 415,254 420,256 425,258 430,260
      435,257 440,260 445,262 450,264 455,265 460,267
      465,264 470,266 475,268 480,270 485,271 490,272
      495,270 500,272 505,273 510,274 515,275 520,276
      525,274 530,276 535,277 540,278 545,279 550,280
      555,278 560,279 565,280 570,281 575,282 580,283
      583,294 585,299 588,302 590,304 595,305 600,305
      605,305 610,306 615,306 620,306 625,306 630,306
      635,305 640,306 645,306 650,305 655,306 660,306
    "/>

    <!-- 90th percentile (amber #f59e0b) -->
    <polyline fill="none" stroke="#f59e0b" stroke-width="2" stroke-linejoin="round" stroke-linecap="round" points="
      60,303 65,302 70,303 75,302 80,303 85,302 90,303 95,302 100,301 105,302
      110,300 115,297 120,294 125,286 130,268
      135,150 138,43 140,41 143,41 146,41 150,41 155,41 160,42
      165,43 170,44 175,47 180,50 185,58 190,67
      195,135 200,144 205,148 210,153 215,148 220,153
      225,157 230,162 235,157 240,162 245,166 250,171
      255,168 260,173 265,171 270,176 275,180 280,184
      285,181 290,184 295,188 300,191 305,193 310,196
      315,192 320,196 325,199 330,202 335,204 340,206
      345,203 350,206 355,209 360,212 365,214 370,216
      375,213 380,216 385,219 390,222 395,224 400,226
      405,223 410,226 415,228 420,230 425,232 430,234
      435,231 440,234 445,236 450,238 455,240 460,241
      465,239 470,241 475,243 480,245 485,247 490,248
      495,246 500,248 505,250 510,251 515,253 520,254
      525,252 530,254 535,255 540,257 545,258 550,259
      555,257 560,259 565,260 570,261 575,262 580,263
      583,292 585,297 588,300 590,302 595,303 600,304
      605,304 610,305 615,305 620,305 625,305 630,305
      635,304 640,305 645,305 650,304 655,305 660,305
    "/>

    <!-- 95th percentile (orange #f97316) -->
    <polyline fill="none" stroke="#f97316" stroke-width="2" stroke-linejoin="round" stroke-linecap="round" points="
      60,301 65,300 70,301 75,300 80,301 85,300 90,301 95,300 100,299 105,300
      110,298 115,294 120,290 125,280 130,258
      135,130 138,42 140,41 143,41 146,41 150,41 155,41 160,41
      165,42 170,43 175,44 180,46 185,50 190,58
      195,108 200,117 205,121 210,126 215,121 220,126
      225,130 230,135 235,130 240,135 245,139 250,144
      255,141 260,146 265,144 270,149 275,153 280,157
      285,154 290,157 295,161 300,164 305,166 310,169
      315,165 320,169 325,172 330,175 335,177 340,180
      345,177 350,180 355,183 360,186 365,188 370,190
      375,187 380,190 385,193 390,196 395,198 400,200
      405,197 410,200 415,203 420,205 425,207 430,209
      435,206 440,209 445,211 450,213 455,215 460,217
      465,214 470,217 475,219 480,221 485,223 490,225
      495,222 500,225 505,227 510,228 515,230 520,232
      525,229 530,232 535,234 540,236 545,237 550,239
      555,237 560,239 565,240 570,242 575,243 580,244
      583,290 585,296 588,299 590,301 595,302 600,303
      605,303 610,304 615,304 620,304 625,304 630,304
      635,303 640,304 645,303 650,302 655,303 660,303
    "/>

    <!-- 99th percentile (red #ef4444) - Highest line -->
    <polyline fill="none" stroke="#ef4444" stroke-width="2" stroke-linejoin="round" stroke-linecap="round" points="
      60,299 65,298 70,299 75,298 80,299 85,298 90,299 95,298 100,297 105,298
      110,296 115,291 120,286 125,274 130,248
      135,110 138,42 140,40 143,40 146,40 150,40 155,40 160,41
      165,41 170,42 175,43 180,44 185,45 190,49
      195,76 200,85 205,90 210,94 215,90 220,94
      225,99 230,103 235,99 240,103 245,108 250,112
      255,109 260,113 265,112 270,117 275,121 280,126
      285,122 290,126 295,130 300,135 305,131 310,135
      315,130 320,135 325,139 330,144 335,140 340,144
      345,140 350,144 355,148 360,153 365,149 370,153
      375,149 380,153 385,157 390,162 395,158 400,162
      405,158 410,162 415,166 420,171 425,167 430,171
      435,167 440,171 445,175 450,180 455,176 460,180
      465,176 470,180 475,184 480,189 485,185 490,189
      495,185 500,189 505,193 510,198 515,194 520,198
      525,194 530,198 535,202 540,207 545,203 550,207
      555,203 560,207 565,211 570,216 575,212 580,216
      583,286 585,292 588,296 590,299 595,300 600,301
      605,302 610,303 615,303 620,303 625,303 630,302
      635,296 640,292 645,296 650,290 655,294 660,296
    "/>

  </g>

  <!-- Legend -->
  <g transform="translate(60, 350)">
    <circle cx="8" cy="8" r="4" fill="#ef4444"/>
    <text x="16" y="12" fill="#e8e8e8" font-size="11">99th</text>

    <circle cx="78" cy="8" r="4" fill="#f97316"/>
    <text x="86" y="12" fill="#e8e8e8" font-size="11">95th</text>

    <circle cx="148" cy="8" r="4" fill="#f59e0b"/>
    <text x="156" y="12" fill="#e8e8e8" font-size="11">90th</text>

    <circle cx="218" cy="8" r="4" fill="#eab308"/>
    <text x="226" y="12" fill="#e8e8e8" font-size="11">75th</text>

    <circle cx="288" cy="8" r="4" fill="#22c55e"/>
    <text x="296" y="12" fill="#e8e8e8" font-size="11">average</text>
  </g>

</svg>